<?xml version="1.0" standalone="no"?>
<!DOCTYPE svg PUBLIC "-//W3C//DTD SVG 20010904//EN"
 "http://www.w3.org/TR/2001/REC-SVG-20010904/DTD/svg10.dtd">
<svg version="1.0" xmlns="http://www.w3.org/2000/svg"
 width="1024.000000pt" height="1024.000000pt" viewBox="0 0 1024.000000 1024.000000"
 preserveAspectRatio="xMidYMid meet">
<metadata>
Created by potrace 1.11, written by Peter Selinger 2001-2013
</metadata>
<g transform="translate(0.000000,1024.000000) scale(0.100000,-0.100000)"
fill="#000000" stroke="none">
<path d="M1530 10232 c0 -4 -12 -8 -27 -7 -16 0 -51 -4 -79 -10 -28 -7 -58
-11 -67 -9 -10 1 -17 -1 -17 -5 0 -4 -6 -8 -12 -8 -28 0 -118 -25 -118 -33 0
-4 -9 -6 -20 -3 -11 3 -20 1 -20 -4 0 -5 -12 -10 -27 -11 -15 -1 -30 -7 -34
-13 -3 -6 -10 -11 -15 -10 -21 1 -54 -12 -54 -21 0 -5 -5 -6 -11 -2 -6 3 -14
2 -18 -4 -3 -5 -15 -12 -26 -14 -11 -1 -24 -8 -30 -14 -5 -6 -26 -17 -45 -25
-19 -7 -39 -17 -45 -21 -29 -24 -85 -56 -85 -50 0 4 -4 2 -8 -3 -4 -6 -30 -27
-59 -47 -59 -42 -82 -61 -131 -105 -19 -18 -39 -33 -45 -33 -6 0 -8 -3 -4 -6
3 -3 -14 -24 -39 -45 -25 -21 -43 -39 -40 -39 3 0 -12 -18 -33 -39 -22 -22
-37 -42 -34 -45 4 -3 2 -6 -3 -6 -12 0 -114 -143 -114 -159 0 -5 -6 -14 -13
-18 -8 -4 -34 -49 -60 -100 -25 -50 -47 -91 -49 -90 -1 1 -2 1 -1 -1 1 -2 -5
-18 -12 -37 -8 -18 -11 -35 -8 -39 4 -3 2 -6 -4 -6 -9 0 -16 -15 -29 -65 -1
-5 -9 -29 -18 -53 -8 -23 -15 -44 -16 -47 0 -3 0 -6 -1 -7 -3 -10 -10 -46 -11
-60 -1 -10 -6 -18 -11 -18 -4 0 -7 -6 -6 -12 4 -31 -2 -79 -8 -75 -5 3 -10
-25 -12 -61 -3 -37 -6 -1668 -8 -3625 -2 -2842 0 -3557 10 -3551 9 6 9 4 0 -7
-14 -14 -18 -33 -5 -26 4 3 8 -16 9 -41 1 -26 4 -60 8 -77 3 -16 6 -40 6 -52
-1 -13 3 -23 8 -23 5 0 8 -8 7 -17 -2 -10 3 -35 10 -55 7 -21 11 -38 7 -38 -3
0 -1 -6 5 -12 5 -7 13 -29 17 -48 4 -19 11 -41 15 -50 24 -45 38 -85 34 -92
-3 -4 0 -8 6 -8 6 0 8 -5 5 -10 -3 -6 -2 -10 3 -10 6 0 13 -12 17 -27 3 -16
14 -36 22 -45 9 -10 13 -18 9 -18 -4 0 2 -13 13 -29 12 -16 21 -34 21 -40 0
-5 8 -15 18 -20 9 -6 13 -11 9 -11 -9 0 72 -123 85 -128 4 -2 8 -8 8 -13 0 -9
33 -50 78 -95 12 -13 22 -25 22 -28 0 -4 71 -74 126 -123 76 -68 93 -82 115
-93 12 -7 32 -21 43 -31 11 -11 26 -19 33 -19 7 0 13 -4 13 -10 0 -5 16 -17
35 -26 19 -9 35 -21 35 -26 0 -5 4 -7 9 -3 5 3 16 -1 24 -9 8 -8 17 -12 21 -9
3 4 6 2 6 -4 0 -9 34 -24 44 -20 2 1 13 -6 24 -16 10 -10 28 -19 40 -22 11 -2
34 -11 51 -19 16 -9 37 -16 46 -16 8 0 15 -5 15 -12 0 -6 3 -9 6 -5 3 3 31 -3
62 -14 32 -11 58 -19 60 -19 1 0 3 0 5 -1 3 -1 35 -9 50 -12 6 -1 18 -7 26
-11 10 -7 12 -5 6 5 -6 11 -5 12 6 2 7 -7 28 -13 46 -13 18 0 33 -5 33 -11 0
-8 4 -8 14 0 10 8 16 9 21 1 3 -6 22 -9 40 -7 19 2 32 0 29 -4 -3 -5 0 -9 5
-9 6 0 11 5 11 10 0 6 5 10 11 10 5 0 7 -4 4 -10 -4 -7 1189 -10 3549 -10
1956 0 3556 4 3556 8 0 5 20 8 44 8 24 -1 42 2 39 7 -2 4 6 8 19 9 31 2 39 3
68 15 14 6 28 9 33 6 4 -2 7 1 7 7 0 6 4 9 9 5 5 -3 15 0 23 7 7 7 22 15 33
16 11 2 22 7 25 10 3 4 14 9 25 10 11 2 27 10 35 17 8 7 22 15 30 17 8 2 22
11 31 20 9 10 19 15 22 12 3 -3 14 3 25 13 38 34 52 44 52 36 0 -4 7 1 15 11
8 11 15 17 15 13 0 -4 8 1 18 11 10 9 38 33 62 52 44 36 214 200 207 200 -3 0
12 17 32 38 20 20 48 52 61 70 14 19 39 50 57 70 17 20 29 40 27 43 -2 4 3 9
11 13 8 3 15 11 15 17 0 6 10 20 22 30 11 11 18 19 14 19 -4 0 0 7 8 16 9 8
16 22 16 30 0 8 4 13 9 10 5 -3 16 9 26 27 34 66 50 92 63 100 7 5 10 12 7 18
-4 5 -1 9 4 9 6 0 11 4 11 9 0 5 12 27 26 49 15 22 26 44 24 48 -1 4 2 10 7
13 5 3 25 35 44 71 19 36 38 68 42 71 4 3 9 15 10 27 0 12 3 19 6 16 2 -2 24
35 47 83 23 49 48 94 54 101 6 6 8 12 5 12 -3 0 1 13 9 29 9 16 12 31 9 35 -4
3 -2 6 4 6 9 0 28 33 31 53 1 4 8 21 17 37 14 26 15 406 15 3530 0 1925 -4
3500 -8 3500 -4 0 -7 21 -7 48 0 26 -3 49 -6 52 -4 3 -8 21 -10 40 -2 19 -6
40 -9 45 -3 6 -7 24 -9 40 -2 17 -7 38 -12 47 -5 9 -9 26 -9 37 0 12 -4 21 -8
21 -8 0 -12 14 -13 53 0 9 -4 17 -10 17 -5 0 -9 6 -9 14 0 7 -8 31 -17 52 -9
22 -17 41 -18 44 -6 19 -49 106 -55 110 -4 3 -10 15 -14 27 -4 13 -14 29 -21
37 -8 8 -16 20 -17 27 -2 7 -11 22 -20 33 -10 10 -15 23 -12 28 3 4 -2 8 -10
8 -9 0 -16 6 -16 13 0 8 -9 22 -20 32 -11 10 -18 20 -16 22 2 3 -9 19 -25 36
-53 60 -79 92 -79 100 0 5 -5 5 -10 2 -5 -3 -10 -2 -10 2 0 5 -16 26 -35 46
-19 20 -35 35 -35 32 0 -3 -15 9 -33 27 -17 18 -47 44 -65 58 -18 14 -47 37
-64 51 -16 14 -46 34 -67 45 -20 10 -38 21 -41 24 -14 16 -109 68 -114 63 -3
-4 -6 -1 -6 6 0 7 -4 10 -9 7 -5 -4 -11 -2 -13 4 -1 5 -13 11 -25 13 -12 2
-26 7 -30 12 -5 4 -1 5 7 0 9 -5 12 -5 7 1 -5 5 -12 9 -15 10 -41 7 -72 18
-72 27 0 6 -3 7 -7 4 -3 -4 -12 -2 -20 4 -7 6 -13 8 -13 4 0 -4 -11 0 -25 9
-14 9 -25 14 -25 10 0 -4 -7 -1 -15 6 -8 6 -19 9 -24 6 -5 -4 -13 -1 -16 5 -4
5 -13 8 -21 5 -7 -3 -16 -1 -19 4 -4 6 -19 10 -34 10 -15 0 -31 3 -35 7 -3 4
-14 8 -24 9 -9 2 -35 5 -57 9 -22 3 -52 7 -67 7 -16 1 -28 6 -28 12 0 6 -5 4
-10 -4 -5 -8 -10 -10 -10 -4 0 14 -32 13 -42 -1 -5 -6 -8 -5 -8 3 0 10 -718
12 -3565 12 -1961 0 -3565 -4 -3565 -8z"/>
</g>
</svg>
