<?xml version="1.0" standalone="no"?>
<!DOCTYPE svg PUBLIC "-//W3C//DTD SVG 20010904//EN"
 "http://www.w3.org/TR/2001/REC-SVG-20010904/DTD/svg10.dtd">
<svg version="1.0" xmlns="http://www.w3.org/2000/svg"
 width="800.000000pt" height="600.000000pt" viewBox="0 0 800.000000 600.000000"
 preserveAspectRatio="xMidYMid meet">
<metadata>
Created by potrace 1.15, written by Peter Selinger 2001-2017
</metadata>
<g transform="translate(0.000000,600.000000) scale(0.100000,-0.100000)"
fill="#000000" stroke="none">
<path d="M1342 5623 c-44 -21 -85 -63 -106 -106 -15 -33 -16 -227 -14 -2529
l3 -2493 27 -38 c14 -22 43 -51 65 -65 l38 -27 2635 0 2635 0 38 27 c22 14 51
43 65 65 l27 38 0 2505 0 2505 -27 38 c-14 22 -43 51 -65 65 l-38 27 -2625 2
c-2422 2 -2628 1 -2658 -14z m2860 -1288 c148 -19 243 -46 353 -100 244 -119
365 -311 365 -580 0 -193 -55 -333 -179 -455 -75 -75 -180 -140 -274 -170 -47
-15 -41 -26 21 -33 179 -21 385 -158 480 -319 65 -110 85 -187 90 -343 7 -249
-38 -375 -188 -525 -131 -131 -271 -202 -490 -246 -178 -35 -335 -44 -816 -44
l-444 0 0 1415 0 1415 484 0 c372 0 511 -3 598 -15z"/>
<path d="M3452 3598 l3 -443 330 1 c364 0 421 7 541 63 161 75 238 204 237
396 -1 143 -48 242 -151 316 -128 91 -234 109 -648 109 l-314 0 2 -442z"/>
<path d="M3452 2338 l3 -503 365 0 c346 0 370 2 455 23 139 35 240 89 312 165
97 104 131 201 120 347 -20 255 -191 414 -494 459 -41 6 -222 11 -418 11
l-345 0 2 -502z"/>
</g>
</svg>
