<?xml version="1.0" encoding="UTF-8" standalone="no"?>
<!DOCTYPE svg PUBLIC "-//W3C//DTD SVG 1.1//EN" "http://www.w3.org/Graphics/SVG/1.1/DTD/svg11.dtd">
<svg version="1.1" xmlns="http://www.w3.org/2000/svg" xmlns:xlink="http://www.w3.org/1999/xlink" preserveAspectRatio="xMidYMid meet" viewBox="0 0 640 640" width="640" height="640"><defs><path d="M533.33 640C490.67 640 149.33 640 106.67 640C48 640 0 592 0 533.33C0 490.67 0 149.33 0 106.67C0 48 48 0 106.67 0C149.33 0 490.67 0 533.33 0C592 0 640 48 640 106.67C640 135.11 640 277.33 640 533.33C608 604.44 572.44 640 533.33 640Z" id="dquid34ht"></path><path d="M360.32 139.14L362.76 139.21L365.19 139.31L367.59 139.44L369.96 139.6L372.31 139.79L374.63 140L376.93 140.25L379.21 140.52L381.46 140.82L383.68 141.15L385.88 141.51L388.06 141.89L390.21 142.31L392.33 142.76L394.44 143.23L396.51 143.73L398.56 144.26L400.59 144.82L402.59 145.41L404.57 146.03L406.52 146.68L408.44 147.35L410.35 148.06L412.22 148.79L414.07 149.55L415.9 150.34L417.7 151.16L419.48 152.01L421.23 152.89L422.96 153.8L424.66 154.73L426.34 155.7L427.99 156.69L429.61 157.71L431.22 158.76L432.79 159.84L434.34 160.95L435.87 162.09L437.36 163.26L438.82 164.46L440.24 165.68L441.62 166.94L442.97 168.22L444.27 169.53L445.54 170.87L446.77 172.25L447.97 173.65L449.12 175.08L450.24 176.53L451.32 178.02L452.36 179.54L453.37 181.09L454.33 182.66L455.26 184.27L456.15 185.9L457.01 187.56L457.82 189.26L458.6 190.98L459.34 192.73L460.04 194.51L460.71 196.32L461.33 198.16L461.92 200.03L462.47 201.93L462.99 203.86L463.46 205.82L463.9 207.81L464.3 209.83L464.66 211.87L464.98 213.95L465.26 216.06L465.51 218.19L465.72 220.36L465.89 222.55L466.02 224.78L466.12 227.03L466.18 229.32L466.2 231.63L466.19 233.04L466.16 234.44L466.12 235.82L466.06 237.2L465.98 238.57L465.89 239.92L465.77 241.27L465.64 242.6L465.5 243.93L465.33 245.24L465.15 246.55L464.95 247.84L464.74 249.13L464.51 250.4L464.25 251.66L463.99 252.92L463.7 254.16L463.4 255.39L463.08 256.62L462.75 257.83L462.39 259.03L462.02 260.23L461.63 261.41L461.23 262.58L460.8 263.74L460.36 264.89L459.91 266.04L459.43 267.17L458.94 268.29L458.43 269.4L457.91 270.5L457.36 271.59L456.8 272.67L456.22 273.74L455.63 274.8L455.01 275.85L454.39 276.89L453.74 277.92L453.07 278.94L452.39 279.95L451.69 280.95L450.98 281.93L450.25 282.91L449.51 283.88L448.75 284.83L447.98 285.77L447.2 286.71L446.39 287.63L445.58 288.54L444.75 289.43L443.9 290.32L443.04 291.2L442.16 292.06L441.27 292.92L440.36 293.76L439.44 294.59L438.51 295.41L437.55 296.22L436.59 297.02L435.61 297.8L434.61 298.58L433.6 299.34L432.58 300.09L431.54 300.83L430.48 301.56L429.41 302.28L428.33 302.99L427.23 303.68L426.11 304.36L424.98 305.04L423.84 305.7L422.68 306.34L421.5 306.98L420.31 307.61L419.11 308.22L417.89 308.82L416.65 309.41L415.41 309.99L414.14 310.56L412.86 311.11L412.86 312.16L414.58 312.54L416.27 312.94L417.95 313.36L419.6 313.81L421.23 314.28L422.84 314.77L424.43 315.28L426 315.82L427.55 316.38L429.08 316.96L430.58 317.56L432.07 318.19L433.53 318.84L434.98 319.51L436.4 320.2L437.8 320.92L439.18 321.65L440.54 322.41L441.88 323.2L443.2 324L444.5 324.83L445.78 325.68L447.03 326.55L448.27 327.44L449.48 328.36L450.67 329.3L451.84 330.26L452.99 331.24L454.12 332.25L455.23 333.27L456.32 334.32L457.38 335.4L458.43 336.49L459.45 337.61L460.45 338.75L461.44 339.91L462.4 341.1L463.34 342.3L464.25 343.53L465.15 344.78L466.03 346.06L466.88 347.36L467.71 348.67L468.52 349.99L469.31 351.33L470.07 352.69L470.82 354.06L471.54 355.45L472.24 356.86L472.91 358.28L473.57 359.71L474.2 361.17L474.81 362.63L475.4 364.12L475.97 365.62L476.51 367.13L477.04 368.67L477.54 370.22L478.01 371.78L478.47 373.36L478.9 374.96L479.32 376.57L479.71 378.2L480.07 379.84L480.42 381.5L480.74 383.18L481.04 384.87L481.32 386.58L481.58 388.31L481.81 390.05L482.02 391.81L482.21 393.58L482.38 395.37L482.53 397.18L482.65 399L482.75 400.84L482.83 402.7L482.88 404.57L482.92 406.46L482.93 408.37L482.92 409.46L482.91 410.56L482.88 411.64L482.85 412.73L482.81 413.81L482.75 414.89L482.69 415.97L482.61 417.04L482.53 418.1L482.44 419.17L482.33 420.23L482.22 421.29L482.1 422.34L481.97 423.39L481.83 424.43L481.67 425.48L481.51 426.51L481.34 427.55L481.16 428.58L480.97 429.61L480.77 430.63L480.56 431.65L480.33 432.67L480.1 433.68L479.86 434.69L479.61 435.69L479.35 436.69L479.08 437.69L478.81 438.69L478.52 439.67L478.22 440.66L477.91 441.64L477.59 442.62L477.26 443.6L476.92 444.57L476.58 445.53L476.22 446.49L475.85 447.45L475.47 448.41L475.08 449.36L474.69 450.31L474.28 451.26L473.86 452.2L473.43 453.13L472.99 454.06L472.53 454.98L472.07 455.89L471.6 456.8L471.11 457.7L470.61 458.59L470.1 459.48L469.59 460.36L469.06 461.24L468.51 462.1L467.96 462.96L467.4 463.82L466.82 464.66L466.24 465.5L465.64 466.34L465.03 467.16L464.41 467.98L463.78 468.8L463.14 469.6L462.49 470.4L461.82 471.2L461.15 471.98L460.46 472.76L459.76 473.54L459.06 474.31L458.33 475.07L457.6 475.82L456.86 476.57L456.11 477.31L455.34 478.04L454.56 478.77L453.78 479.49L452.98 480.2L452.17 480.91L451.34 481.61L450.51 482.3L449.66 482.99L448.81 483.67L447.94 484.34L447.06 485L446.17 485.66L445.27 486.31L444.36 486.96L443.43 487.6L442.49 488.23L441.55 488.85L440.59 489.47L439.61 490.07L438.63 490.68L437.64 491.27L436.63 491.86L435.61 492.44L434.58 493.01L433.54 493.58L432.49 494.14L431.42 494.69L430.35 495.24L429.26 495.78L428.16 496.31L427.05 496.83L425.92 497.35L424.79 497.86L423.64 498.36L422.48 498.86L421.31 499.35L420.13 499.83L418.93 500.3L417.73 500.77L416.51 501.23L415.27 501.69L414.03 502.13L412.78 502.57L411.51 503.01L410.23 503.43L408.94 503.85L407.63 504.26L406.32 504.66L404.99 505.06L403.65 505.44L402.3 505.81L400.93 506.17L399.56 506.52L398.17 506.87L396.77 507.2L395.35 507.52L393.93 507.83L392.49 508.13L391.04 508.42L389.58 508.7L388.1 508.97L386.61 509.23L385.11 509.48L383.6 509.72L382.08 509.95L380.54 510.17L378.99 510.38L377.43 510.58L375.86 510.77L374.27 510.94L372.67 511.11L371.06 511.27L369.44 511.42L367.81 511.56L366.16 511.68L364.5 511.8L362.83 511.91L361.14 512.01L359.44 512.09L357.73 512.17L356.01 512.23L354.27 512.29L352.53 512.34L350.77 512.37L348.99 512.4L347.21 512.41L345.41 512.42L173.91 512.42L173.91 139.08L355.35 139.08L357.84 139.1L360.32 139.14ZM239.27 459.08L354.82 459.08L356.31 459.08L357.77 459.05L359.22 459L360.65 458.93L362.07 458.84L363.47 458.74L364.85 458.61L366.22 458.47L367.57 458.31L368.9 458.12L370.21 457.92L371.51 457.7L372.8 457.46L374.06 457.2L375.31 456.92L376.55 456.62L377.76 456.3L378.96 455.96L380.14 455.61L381.31 455.23L382.46 454.83L383.59 454.42L384.7 453.98L385.8 453.53L386.88 453.05L387.94 452.56L388.99 452.05L390.02 451.52L391.03 450.96L392.03 450.39L393.01 449.8L393.97 449.19L394.91 448.56L395.84 447.91L396.75 447.25L397.65 446.56L398.52 445.85L399.38 445.12L400.22 444.37L401.05 443.61L401.86 442.83L402.65 442.04L403.42 441.23L404.18 440.4L404.91 439.56L405.62 438.7L406.31 437.83L406.98 436.93L407.63 436.03L408.26 435.1L408.87 434.16L409.46 433.2L410.02 432.23L410.57 431.24L411.1 430.24L411.61 429.21L412.09 428.18L412.56 427.12L413 426.05L413.42 424.97L413.83 423.87L414.21 422.75L414.57 421.61L414.91 420.46L415.24 419.3L415.54 418.11L415.82 416.92L416.07 415.7L416.31 414.47L416.53 413.23L416.73 411.96L416.9 410.69L417.06 409.39L417.19 408.08L417.31 406.76L417.4 405.42L417.48 404.06L417.53 402.69L417.56 401.3L417.57 399.9L417.56 398.52L417.53 397.15L417.48 395.8L417.41 394.47L417.31 393.16L417.2 391.86L417.07 390.58L416.91 389.31L416.74 388.06L416.55 386.83L416.33 385.61L416.09 384.41L415.84 383.23L415.56 382.06L415.26 380.91L414.95 379.77L414.61 378.65L414.25 377.55L413.87 376.46L413.46 375.39L413.04 374.33L412.6 373.29L412.14 372.26L411.65 371.25L411.15 370.26L410.62 369.28L410.07 368.32L409.5 367.37L408.91 366.44L408.3 365.53L407.67 364.63L407.02 363.74L406.35 362.88L405.65 362.02L404.94 361.19L404.2 360.36L403.44 359.56L402.67 358.77L401.87 357.99L401.05 357.23L400.21 356.49L399.35 355.76L398.48 355.06L397.59 354.37L396.69 353.71L395.77 353.06L394.84 352.44L393.89 351.83L392.92 351.24L391.94 350.67L390.94 350.12L389.93 349.59L388.9 349.08L387.85 348.59L386.79 348.12L385.71 347.66L384.61 347.23L383.5 346.81L382.37 346.42L381.23 346.04L380.07 345.68L378.89 345.34L377.7 345.02L376.48 344.71L375.26 344.43L374.01 344.16L372.75 343.92L371.47 343.69L370.18 343.48L368.87 343.29L367.54 343.11L366.2 342.96L364.83 342.82L363.46 342.71L362.06 342.61L360.65 342.52L359.22 342.46L357.77 342.42L356.31 342.39L354.82 342.38L239.27 342.38L239.27 459.08ZM239.27 295.42L345.93 295.42L347.11 295.42L348.27 295.39L349.42 295.35L350.56 295.29L351.69 295.22L352.82 295.13L353.93 295.02L355.03 294.9L356.13 294.76L357.21 294.6L358.28 294.42L359.35 294.23L360.4 294.03L361.44 293.8L362.48 293.56L363.5 293.3L364.52 293.03L365.52 292.74L366.52 292.43L367.5 292.1L368.48 291.76L369.44 291.4L370.4 291.03L371.35 290.64L372.28 290.23L373.21 289.8L374.13 289.36L375.03 288.9L375.93 288.42L376.82 287.92L377.69 287.41L378.56 286.88L379.42 286.34L380.27 285.78L381.11 285.2L381.93 284.6L382.75 283.99L383.56 283.35L384.36 282.71L385.15 282.04L385.92 281.36L386.68 280.66L387.42 279.95L388.13 279.23L388.83 278.49L389.5 277.74L390.16 276.97L390.8 276.19L391.42 275.39L392.01 274.58L392.59 273.76L393.15 272.92L393.69 272.07L394.21 271.2L394.71 270.32L395.19 269.43L395.65 268.52L396.09 267.59L396.51 266.65L396.92 265.7L397.3 264.73L397.66 263.75L398 262.75L398.33 261.74L398.63 260.71L398.92 259.67L399.18 258.62L399.42 257.55L399.65 256.46L399.86 255.36L400.04 254.25L400.21 253.12L400.36 251.98L400.48 250.82L400.59 249.64L400.68 248.46L400.75 247.25L400.8 246.04L400.83 244.8L400.84 243.56L400.83 242.15L400.8 240.77L400.76 239.41L400.7 238.07L400.62 236.76L400.52 235.46L400.4 234.18L400.27 232.93L400.12 231.69L399.95 230.48L399.77 229.29L399.57 228.11L399.35 226.96L399.11 225.83L398.85 224.72L398.58 223.63L398.29 222.57L397.98 221.52L397.65 220.49L397.31 219.49L396.95 218.51L396.57 217.54L396.17 216.6L395.75 215.68L395.32 214.78L394.87 213.9L394.4 213.05L393.92 212.21L393.42 211.39L392.9 210.6L392.36 209.83L391.8 209.07L391.23 208.34L390.64 207.63L390.03 206.94L389.4 206.28L388.76 205.63L388.1 205L387.42 204.4L386.72 203.82L386.01 203.25L385.28 202.7L384.53 202.16L383.77 201.64L382.99 201.13L382.2 200.64L381.39 200.16L380.57 199.69L379.73 199.24L378.88 198.8L378.01 198.38L377.12 197.97L376.22 197.57L375.3 197.19L374.37 196.82L373.42 196.47L372.45 196.13L371.47 195.81L370.48 195.5L369.46 195.2L368.44 194.92L367.39 194.65L366.33 194.4L365.26 194.16L364.17 193.94L363.06 193.73L361.94 193.54L360.81 193.36L359.65 193.19L358.48 193.04L357.3 192.9L356.1 192.78L354.88 192.67L353.65 192.57L352.41 192.49L351.14 192.43L349.86 192.38L348.57 192.34L347.26 192.32L345.93 192.31L239.27 192.31L239.27 295.42Z" id="fBfJ4Lql"></path></defs><g><g><g><use xlink:href="#dquid34ht" opacity="1" fill="#f96332" fill-opacity="1"></use><g><use xlink:href="#dquid34ht" opacity="1" fill-opacity="0" stroke="#000000" stroke-width="1" stroke-opacity="0"></use></g></g><g><use xlink:href="#fBfJ4Lql" opacity="1" fill="#ffffff" fill-opacity="1"></use><g><use xlink:href="#fBfJ4Lql" opacity="1" fill-opacity="0" stroke="#000000" stroke-width="1" stroke-opacity="0"></use></g></g></g></g></svg>